<?xml version="1.0" encoding="UTF-8"?>
<svg id="Capa_2" data-name="Capa 2" xmlns="http://www.w3.org/2000/svg" xmlns:xlink="http://www.w3.org/1999/xlink" viewBox="0 0 194.25 232.5">
  <defs>
    <style>
      .cls-1 {
        fill: #fff;
      }

      .cls-2 {
        fill: none;
      }

      .cls-3 {
        clip-path: url(#clippath);
      }
    </style>
    <clipPath id="clippath">
      <rect class="cls-2" width="194.25" height="232.5"/>
    </clipPath>
  </defs>
  <g id="Capa_1-2" data-name="Capa 1">
    <g class="cls-3">
      <path class="cls-1" d="M143.97,44.69c-1.41,0-2.56-1.15-2.56-2.56,0-1.67-.44-2.92-1.26-3.72-1.36-1.28-3.54-1.23-3.56-1.23-1.38.08-2.61-1-2.69-2.41-.08-1.41,1-2.61,2.41-2.69.44-.03,4.41-.15,7.35,2.64,1.9,1.79,2.87,4.31,2.87,7.43,0,1.38-1.13,2.54-2.56,2.54ZM109.68,19.65c-.79,1.18-2.38,1.49-3.56.69-3.36-2.28-6.3-3.08-8.76-2.33-3.51,1.05-5.2,4.95-5.23,5-.41,1-1.36,1.59-2.38,1.59-.33,0-.67-.05-.97-.21-1.31-.54-1.92-2.02-1.38-3.36.1-.26,2.61-6.18,8.48-7.94,4-1.2,8.41-.2,13.12,3,1.18.79,1.49,2.38.69,3.56ZM190.33,33.52c-2.46-5.3-5.87-8.61-10.12-9.87-7.87-2.31-16.43,3.08-16.5,3.13-.64.41-1.41.51-2.13.28-.72-.23-1.31-.74-1.61-1.44-3.69-8.64-8.56-13.76-14.48-15.25-9.07-2.26-17.91,4.77-17.99,4.82-.59.49-1.38.67-2.13.51-.74-.15-1.38-.64-1.74-1.33-1.64-3.15-5.13-6.02-10.35-8.53C103.2.97,94.54.18,87.51,3.43c-10.92,5.05-14.53,18.48-14.56,18.6-.21.74-.72,1.36-1.41,1.69-.69.33-1.51.31-2.2-.03-.36-.18-9.76-4.33-20.63,8.48-2.79,3.31-3.9,6.51-3.31,9.79,1.08,6.12,7.66,10.76,9.64,12.04h82.47c2.2,0,4.33.46,6.25,1.26,5.77,2.43,9.81,8.15,9.81,14.81v38.39c0,1.97.72,3.84,1.97,5.38.18.21.31.44.51.61.44.44.9.79,1.38,1.13.03,0,.03.03.03.03.9.56,1.9.92,2.92,1.15.72.15,1.46.23,2.23.18,4.46-.28,7.94-4.18,7.94-8.89v-43.82c0-3.28,1.59-6.15,4-8.02,1.72-1.33,3.87-2.18,6.23-2.18h1.9c2.82,0,5.38-.87,7.2-2.46,4.18-3.64,4.31-9.71.44-18.07Z"/>
      <path class="cls-1" d="M19.86,98.97h31.88v-15.38h-31.88C8.97,83.59.1,92.46.1,103.35v47.87c0,19.58,12.28,37.44,30.57,44.46l21.06,8.61v-17.02l-15.56-5.95c-12.38-4.77-20.71-16.86-20.71-30.09v-47.9c0-2.41,1.97-4.38,4.38-4.38Z"/>
      <path class="cls-1" d="M149.84,131.33v65.73c0,1.41-1.15,2.56-2.56,2.56s-2.56-1.15-2.56-2.56v-65.73c0-1.41,1.15-2.56,2.56-2.56s2.56,1.15,2.56,2.56ZM159.86,220.15h8.48c1.61,0,2.92-1.31,2.92-2.92v-9.46c0-1.41,1.15-2.56,2.56-2.56s2.56,1.15,2.56,2.56v9.46c0,4.43-3.61,8.05-8.05,8.05h-8.48c-1.41,0-2.56-1.15-2.56-2.56s1.15-2.56,2.56-2.56ZM94.97,197.06c0,1.41-1.15,2.56-2.56,2.56s-2.56-1.15-2.56-2.56v-102.61c0-1.41,1.15-2.56,2.56-2.56s2.56,1.15,2.56,2.56v102.61ZM141.77,60.04c-1.31-.56-2.74-.87-4.25-.87H56.87v162.75c0,5.74,4.69,10.43,10.43,10.43h105.09c5.74,0,10.43-4.69,10.43-10.43V59.17h-2.02c-1.18,0-2.26.41-3.13,1.1-1.18.92-1.97,2.36-1.97,3.97v43.82c0,7.43-5.59,13.58-12.74,14.02-.31.03-.59.03-.9.03-.08,0-.15-.03-.23-.03-.77,0-1.54-.08-2.31-.23-.1-.03-.23-.05-.33-.08-.77-.15-1.51-.38-2.23-.67-.1-.05-.21-.1-.31-.13-.72-.31-1.41-.67-2.08-1.1l-.23-.15c-.67-.46-1.33-1-1.95-1.59-.23-.23-.38-.49-.59-.72-2.18-2.49-3.41-5.59-3.41-8.92v-38.39c.05-4.54-2.72-8.41-6.64-10.07Z"/>
    </g>
  </g>
</svg>