<?xml version="1.0" encoding="UTF-8"?>
<svg id="Capa_2" data-name="Capa 2" xmlns="http://www.w3.org/2000/svg" xmlns:xlink="http://www.w3.org/1999/xlink" viewBox="0 0 210.75 239.25">
  <defs>
    <style>
      .cls-1 {
        fill: #fff;
      }

      .cls-2 {
        fill: none;
      }

      .cls-3 {
        clip-path: url(#clippath);
      }
    </style>
    <clipPath id="clippath">
      <rect class="cls-2" width="210.75" height="239.25"/>
    </clipPath>
  </defs>
  <g id="Capa_1-2" data-name="Capa 1">
    <g class="cls-3">
      <path class="cls-1" d="M123.15,59.12c-9.85-10-8.03-27.49-8.04-40.28h-14c0,20.94,2.2,28.03-11.53,45.41h37.06c-.98-1.83-2.14-3.54-3.49-5.13Z"/>
      <path class="cls-1" d="M101.11,14.29h14V5.96c.06-4.99-7.62-3.09-10.57-3.43-5.24-.11-2.97,8.76-3.43,11.76Z"/>
      <path class="cls-1" d="M190.86,61.42c-6-12.69,1.48-28.6,5.69-40.68l-13.22-4.62c-4.26,12.12-8.26,29.15-20.88,35.38-2.54,1.49-4.8,3.32-6.78,5.49s-3.61,4.59-4.86,7.25h40.98c-.26-.96-.57-1.9-.92-2.83Z"/>
      <path class="cls-1" d="M200.79,8.58c1.78-4.65-6.23-5.45-8.85-6.72-4.91-1.84-5.7,7.3-7.11,9.98l13.22,4.62,2.75-7.87Z"/>
      <path class="cls-1" d="M25.74,38.1c3.19,8.6,1.99,17.77-1.3,26.14h40.98c-1.26-2.66-2.88-5.08-4.86-7.25-1.99-2.17-4.25-4-6.78-5.49-12.6-6.2-16.64-23.3-20.88-35.38l-13.22,4.62,6.07,17.37Z"/>
      <path class="cls-1" d="M71.53,149.57h13.03c10.83-11.92,31.12-11.92,41.95,0,12.75-.5,27.85-1.08,28.75,15.72-.9,16.8-16,16.22-28.75,15.72-10.83,11.92-31.12,11.92-41.95,0h-13.03c-20.66-.37-20.65-31.07,0-31.44h0ZM35.74,229.2c.07.68.19,1.35.38,2.01.19.66.44,1.29.74,1.9.31.61.67,1.19,1.08,1.73.41.54.87,1.05,1.38,1.51.51.46,1.05.87,1.63,1.23.58.36,1.19.66,1.83.91.64.25,1.29.43,1.97.56.67.12,1.35.19,2.04.18h117.47c.68,0,1.36-.06,2.03-.18.67-.12,1.32-.31,1.96-.55.64-.24,1.25-.54,1.83-.9s1.12-.76,1.63-1.22c.51-.46.97-.96,1.38-1.5.41-.54.78-1.12,1.08-1.72.31-.61.56-1.24.75-1.89.19-.65.32-1.32.39-2,.07-.05,17.48-130.78,17.54-130.84H18.21l17.53,130.77Z"/>
      <path class="cls-1" d="M71.53,176.47c1.29.33,15.22-.8,15.73.77,9.2,10.9,27.35,10.9,36.55,0,.49-1.54,14.52-.47,15.73-.77.73,0,1.46-.07,2.18-.22.72-.14,1.42-.36,2.1-.64.68-.28,1.32-.63,1.93-1.03.61-.41,1.17-.87,1.69-1.39.52-.52.98-1.08,1.39-1.69.41-.61.75-1.25,1.03-1.93.28-.68.49-1.38.64-2.1.14-.72.22-1.45.22-2.18-.49-13.92-15.76-10.98-25.21-11.18-.68,0-1.25-.26-1.7-.77-.57-.65-1.17-1.26-1.81-1.84-.64-.58-1.3-1.13-1.99-1.64-.69-.51-1.41-.99-2.16-1.42-.74-.44-1.51-.83-2.29-1.19-.79-.35-1.59-.67-2.41-.94-.82-.27-1.65-.5-2.49-.68-.84-.18-1.69-.32-2.55-.41-.86-.09-1.72-.14-2.58-.14s-1.72.05-2.58.14c-.86.09-1.71.23-2.55.41-.84.18-1.67.41-2.49.68s-1.62.58-2.41.94-1.55.75-2.29,1.19c-.74.44-1.46.91-2.16,1.42-.69.51-1.36,1.06-1.99,1.64-.64.58-1.24,1.2-1.81,1.84-.45.51-1.02.77-1.7.77h-14.03c-14.67.26-14.71,22.1,0,22.36Z"/>
      <path class="cls-1" d="M205.57,68.78H30.78c-5.55,5.19-7.65,16.12.45,25.1h174.34c.31,0,.63-.03.93-.09.31-.06.61-.15.9-.27.29-.12.57-.27.83-.44s.5-.37.73-.6c.22-.22.42-.46.6-.73s.32-.54.44-.83c.12-.29.21-.59.27-.9.06-.31.09-.62.09-.93v-15.52c0-.31-.03-.63-.09-.93-.06-.31-.15-.61-.27-.9-.12-.29-.27-.57-.44-.83-.17-.26-.37-.5-.6-.73-.22-.22-.46-.42-.73-.6-.26-.17-.54-.32-.83-.44-.29-.12-.59-.21-.9-.27s-.62-.09-.93-.09Z"/>
      <path class="cls-1" d="M21.95,75.93c.51-2.55,1.44-4.93,2.79-7.15C.37,70.07.1,61.97.71,89.1c-.09,7,10.77,4.3,14.9,4.79h9.82c-.88-1.3-1.63-2.68-2.23-4.13s-1.06-2.95-1.35-4.49c-.3-1.54-.44-3.1-.42-4.67.02-1.57.19-3.13.53-4.66Z"/>
      <path class="cls-1" d="M31.4,11.83c-1.43-2.7-2.19-11.8-7.11-9.97-12,3.62-9.66,4.03-6.1,14.59l13.21-4.62Z"/>
    </g>
  </g>
</svg>