<?xml version="1.0" encoding="UTF-8"?>
<svg id="Capa_2" data-name="Capa 2" xmlns="http://www.w3.org/2000/svg" xmlns:xlink="http://www.w3.org/1999/xlink" viewBox="0 0 69.75 300">
  <defs>
    <style>
      .cls-1 {
        fill: #fff;
      }

      .cls-2 {
        fill: none;
      }

      .cls-3 {
        clip-path: url(#clippath);
      }
    </style>
    <clipPath id="clippath">
      <rect class="cls-2" width="69.75" height="300"/>
    </clipPath>
  </defs>
  <g id="Capa_1-2" data-name="Capa 1">
    <g class="cls-3">
      <path class="cls-1" d="M33.41,4.46c-1.22-1.22-.97-3.03.52-3.87,1.03-.58,1.27-.57,2.3.11,1.48.97,1.57,3.01.17,3.98-1.29.9-1.91.86-2.99-.22h0ZM37.08,14.98c-3.29-1.33-1.98-6.99,1.61-6.99s4.89,5.15,1.72,6.79c-1.39.72-1.95.75-3.33.2h0ZM28.27,25.63c2.3-2.08-.78-5.86-3.25-3.98-1.22.93-1.4,2.75-.36,3.79,1.1,1.1,2.52,1.17,3.61.19h0ZM26.69,36.32c-1.05-.29-2.5-1.26-3.73-2.49-3.93-3.95-4.07-8.97-.37-12.98,5.84-6.34,16.23-2.26,16.23,6.38,0,6.31-5.98,10.8-12.14,9.1h0ZM34.43,50.62c-1.58-.69-3.17-2.96-3.18-4.53,0-1.65,1.33-3.99,2.66-4.68.68-.35,1.98-.64,2.9-.64,5.4,0,6.77,7.3,1.85,9.85-1.53.79-2.41.79-4.24,0h0s0,0,0,0ZM33.65,76.65c.37-.71.67-1.96.67-2.79,0-1.33-.16-1.53-1.37-1.77-2.05-.41-3.79-.33-4.11.19-.51.82-.36,4.29.22,4.99.33.39,1.26.67,2.24.67,1.42,0,1.79-.2,2.35-1.29h0ZM28.16,148.2c.61-1.62,2.21-21.83,3.75-47.52.37-6.13.77-12.08.9-13.23l.23-2.08h-3.42l-.3,5.79c-.4,7.66-1.38,17.2-2.46,23.94-1.78,11.12-3.06,18.34-4.55,25.74-.84,4.18-1.43,7.77-1.29,7.98.13.21,1.71.39,3.5.39,3.01,0,3.29-.08,3.65-1.01h0ZM27.48,156.51c.21-1.39.27-2.64.14-2.78-.13-.13-1.9-.35-3.92-.47l-3.68-.23-.28,1.7c-.57,3.48-.43,4.03,1.13,4.23.78.1,2.5.16,3.83.14l2.4-.05.38-2.53ZM24.96,276.97c1.24-.82,2.69-5.13,3.91-11.69,1.25-6.68.99-14.24-1.74-50.43-.59-7.78-1.13-14.2-1.21-14.28s-1.47-.27-3.09-.44l-2.95-.31.22,1.25c.3,1.69,2.64,27.14,3.48,37.76.37,4.69.7,10.98.73,13.99.06,5.7-.23,7.3-2.89,16.14-1.29,4.28-1.4,6.42-.38,7.54.73.8,3,1.07,3.92.46h0ZM24.7,292.17c.48-.48.87-1.04.87-1.25,0-.34-4.15-1.37-5.54-1.37-.79,0-.74,1.34.1,2.53.89,1.27,3.34,1.32,4.57.1h0ZM25.79,299.15c-11.09-1.15-19.53-4.27-22.67-8.38-3.09-4.06-2.43-13.55,1.91-27.24,2.33-7.34,2.8-11.13,2.49-20.08-.22-6.39-.67-9.91-3.15-24.72-2.4-14.36-2.85-17.79-2.63-20.33.14-1.68.29-3.55.33-4.15.04-.6-.2-3.45-.52-6.34-1-8.99-.1-21.67,2.26-31.92.51-2.2.94-5.76.99-8.09.07-3.6.29-4.68,1.63-8.09,9.73-24.81,10.55-27.18,12.16-35.2,1.36-6.81,2.44-17.05,2.04-19.49-.13-.82-.87-2.78-1.64-4.34-1.31-2.66-1.38-3.03-1.08-5.79.35-3.2.34-3.52-.02-8.43-.22-2.91-.14-3.43.69-4.47,1.26-1.6,4.17-2.39,10.87-2.96,8.42-.71,18.59.26,21.31,2.04,1.89,1.24,2.52,5.33,1.28,8.3-.51,1.23-.54,1.75-.14,2.5.28.52.52,2.25.52,3.85,0,2.43-.22,3.34-1.39,5.58-1.26,2.39-1.4,3.06-1.4,6.36,0,4.52.98,12.19,2.43,19.07,1.08,5.13,5.1,16.58,10.04,28.65,2.93,7.16,3.9,10.98,3.32,13.08-.31,1.12-.2,2.31.42,4.75,2.59,10.1,3.8,23.46,2.95,32.64-.3,3.24-.51,6.87-.46,8.07.29,7.85.11,9.59-2.45,24.7-4.43,26.09-4.5,33.22-.47,45.63,3.15,9.68,4.43,20.69,2.85,24.46-1.84,4.41-8.37,7.83-18.17,9.52-5.9,1.02-18.27,1.43-24.3.81h0Z"/>
    </g>
  </g>
</svg>