<?xml version="1.0" encoding="UTF-8"?>
<svg id="Capa_2" data-name="Capa 2" xmlns="http://www.w3.org/2000/svg" xmlns:xlink="http://www.w3.org/1999/xlink" viewBox="0 0 201.75 201.75">
  <defs>
    <style>
      .cls-1 {
        fill: #fff;
      }

      .cls-2 {
        fill: none;
      }

      .cls-3 {
        clip-path: url(#clippath);
      }
    </style>
    <clipPath id="clippath">
      <rect class="cls-2" width="201.75" height="201.75"/>
    </clipPath>
  </defs>
  <g id="Capa_1-2" data-name="Capa 1">
    <g class="cls-3">
      <path class="cls-1" d="M124.86,67.93c-.45.27-.99.54-1.52.72-4.78,1.73-9.41,2.21-11.47,1.82-.03,0-.06-.06,0-.09,1.37-1.58,5.29-4.09,10.1-5.71.57-.18,1.14-.33,1.64-.39,2.09-.27,3.05,2.54,1.25,3.61v.03ZM142.93,23.57l-49.61,49.61c-1.85,1.85-.54,5.02,2.06,5.02h70.16c3.55,0,6.3-3.08,5.94-6.57-1.88-17.92-8.96-34.32-19.71-47.58-2.21-2.75-6.33-2.93-8.84-.45v-.03Z"/>
      <path class="cls-1" d="M121.6,102.4c-.54-.12-1.08-.3-1.61-.57-4.63-2.12-8.24-5.02-9.47-6.72,0,0,0-.06.03-.06,2.09-.18,6.63.78,11.2,3.02.54.27,1.02.57,1.46.9,1.67,1.25.42,3.94-1.64,3.47l.03-.03ZM165.57,84.18h-70.17c-2.63,0-3.91,3.17-2.06,5.02l49.61,49.61c2.51,2.51,6.63,2.3,8.84-.45,10.75-13.29,17.86-29.66,19.71-47.58.36-3.52-2.42-6.57-5.94-6.57v-.03Z"/>
      <path class="cls-1" d="M64.97,122.11c-.24.54-.54,1.05-.87,1.46-1.22,1.7-3.94.48-3.49-1.58.12-.54.3-1.08.54-1.61,2.03-4.69,4.87-8.33,6.57-9.59,0,0,.06,0,.06.03.21,2.09-.66,6.63-2.81,11.26v.03ZM73.12,93.41l-49.61,49.61c-2.51,2.51-2.3,6.63.45,8.84,13.29,10.75,29.66,17.86,47.58,19.71,3.52.36,6.57-2.42,6.57-5.94v-70.17c0-2.63-3.17-3.91-5.02-2.06h.03Z"/>
      <path class="cls-1" d="M95.14,124.68c-.3-.45-.54-.96-.75-1.52-1.82-4.75-2.36-9.38-2.03-11.44,0-.03.06-.06.09,0,1.61,1.34,4.18,5.2,5.88,10.01.21.57.33,1.11.42,1.64.3,2.09-2.48,3.11-3.58,1.31h-.03ZM89.1,93.41c-1.85-1.85-5.02-.54-5.02,2.06v70.17c0,3.52,3.08,6.3,6.57,5.94,17.92-1.88,34.32-8.96,47.58-19.71,2.75-2.21,2.93-6.33.45-8.84l-49.61-49.61h.03Z"/>
      <path class="cls-1" d="M81.13,181.55c-28.35,0-53.98-11.83-72.26-30.77L150.72,8.93c18.97,18.28,30.77,43.91,30.77,72.26,0,55.35-45.01,100.36-100.36,100.36h0ZM201.32,90.54c-.78-15.11-4.39-29.99-10.75-44.21-6.57-14.7-15.83-28.08-27.48-39.73-1.97-1.97-4-3.85-6.06-5.71l-.84-.84L0,156.25l.84.84c1.82,2.06,3.73,4.09,5.71,6.06,11.65,11.65,25,20.88,39.73,27.48,14.22,6.36,29.09,9.98,44.21,10.75,2.03.09,4.03.15,6.03.15,12.99,0,25.54-2.18,37.43-6.45,14.22-5.14,26.79-13.11,37.37-23.72s18.58-23.18,23.72-37.37c4.96-13.71,7.08-28.32,6.3-43.46Z"/>
    </g>
  </g>
</svg>