<?xml version="1.0" encoding="UTF-8"?>
<svg id="Capa_2" data-name="Capa 2" xmlns="http://www.w3.org/2000/svg" xmlns:xlink="http://www.w3.org/1999/xlink" viewBox="0 0 201.75 269.25">
  <defs>
    <style>
      .cls-1 {
        fill: #fff;
      }

      .cls-2 {
        fill: none;
      }

      .cls-3 {
        clip-path: url(#clippath);
      }
    </style>
    <clipPath id="clippath">
      <rect class="cls-2" width="201.75" height="269.25"/>
    </clipPath>
  </defs>
  <g id="Capa_1-2" data-name="Capa 1">
    <g class="cls-3">
      <path class="cls-1" d="M146.84,59.59h-53.42l43.31,56.6h22.95c-3.49-19.6-8.61-38.01-12.83-56.6ZM56.35,77.17c-3,12.38-6.28,25.7-8.61,39.02h73.75l-43.31-56.6h-17.65c-1.22,5.44-2.69,11.4-4.18,17.58ZM97.64,223.8C.07,212.19,37.03,112.32,49.76,52.27c1.39-6.59,10.11-4.81,19.11-4.81l-16.42-21.48-20.05,7.18c-7.5,2.65-11.58-8.75-4.05-11.44l24.17-8.65c2.44-.84,5.23-.1,6.87,2.06l24.72,32.33h26.82c4.95-32.54,45.82-46.31,69.92-22.67,21.2,20.82,13.43,55.86-13.98,66.5,12.38,53.7,21.9,123.1-57.09,132.51v32.36h24.9c7.99,0,7.99,12.14,0,12.14h-61.97c-7.99,0-7.99-12.14,0-12.14h24.93v-32.36Z"/>
    </g>
  </g>
</svg>