<?xml version="1.0" encoding="UTF-8"?>
<svg id="Capa_2" data-name="Capa 2" xmlns="http://www.w3.org/2000/svg" xmlns:xlink="http://www.w3.org/1999/xlink" viewBox="0 0 181.5 229.5">
  <defs>
    <style>
      .cls-1 {
        fill: #fff;
      }

      .cls-2 {
        fill: none;
      }

      .cls-3 {
        clip-path: url(#clippath);
      }
    </style>
    <clipPath id="clippath">
      <rect class="cls-2" width="181.5" height="229.5"/>
    </clipPath>
  </defs>
  <g id="Capa_1-2" data-name="Capa 1">
    <g class="cls-3">
      <path class="cls-1" d="M176.9.28l-49.72,14.93c-3.15.95-5.3,3.85-5.3,7.16v35.78h14.93v-30.24l44.35-13.32-4.26-14.32Z"/>
      <path class="cls-1" d="M.03,20.12l6.49,6.73c17.91-15.27,44.89-14.1,61.38,3.12,7.61,7.95,11.77,17.96,12.39,28.15h9.37c-.64-12.55-5.61-24.89-14.98-34.6C54.63,2.61,21.7,1.28.03,20.12h0Z"/>
      <path class="cls-1" d="M64.29,37.74l-21.28,20.4h29.38c-.53-7.37-3.27-14.2-7.81-20.01l-.29-.39Z"/>
      <path class="cls-1" d="M59.61,32.95c-5.69-4.89-12.68-7.9-20.2-8.69l-.48-.05-.62,29.85,21.67-20.79-.36-.31Z"/>
      <path class="cls-1" d="M12.35,32.3l-.36.29,20.1,20.96.61-29.35-.49.03c-7.29.64-14.12,3.44-19.85,8.08h0Z"/>
      <path class="cls-1" d="M103.66,137.32c-3.44,3.44-5.39,8.07-5.44,12.92,0,1.04-.01,2.08-.01,3.12.1,15.71.98,31.3,3.88,46.79l39.89,17.83c3.89,1.33,6.56.98,6.81,4.67.23,3.51-2.75,6.39-6.27,6.39H38.64c-3.51,0-6.51-2.89-6.27-6.39.25-3.7,2.92-3.35,6.81-4.67l39.83-17.79c2.88-16.57,4.2-33.35,4.02-50.11-.05-4.76-2.06-9.31-5.43-12.68L14.67,74.48c-2.92-2.92-.86-7.94,3.31-7.94h145.21c4.17,0,6.22,5.04,3.31,7.94l-62.84,62.84h.01Z"/>
    </g>
  </g>
</svg>