<?xml version="1.0" encoding="UTF-8"?>
<svg id="Capa_2" data-name="Capa 2" xmlns="http://www.w3.org/2000/svg" xmlns:xlink="http://www.w3.org/1999/xlink" viewBox="0 0 235.5 231.75">
  <defs>
    <style>
      .cls-1 {
        fill: #fff;
      }

      .cls-2 {
        fill: none;
      }

      .cls-3 {
        clip-path: url(#clippath);
      }
    </style>
    <clipPath id="clippath">
      <rect class="cls-2" width="235.5" height="231.75"/>
    </clipPath>
  </defs>
  <g id="Capa_1-2" data-name="Capa 1">
    <g class="cls-3">
      <path class="cls-1" d="M64.64,61.44c-3.9,0-7.06-3.24-7.06-7.24s3.16-7.24,7.06-7.24,7.06,3.24,7.06,7.24-3.16,7.24-7.06,7.24ZM75.1,38h-20.93v26.97h20.93v-26.97Z"/>
      <path class="cls-1" d="M110.49,221.97h-.06c-1.02,0-1.86-.81-1.9-1.84-1.07-35.07-3.87-75.94-8.52-85.47-6.46-13.24-35.09-13.41-35.38-13.41s-28.92.17-35.38,13.41c-4.65,9.54-7.45,50.41-8.52,85.47-.03,1.05-.98,1.91-1.95,1.84-1.05-.03-1.87-.91-1.84-1.95.52-17.21,2.72-74.34,8.9-87.02,7.5-15.37,37.51-15.54,38.79-15.54s31.29.18,38.79,15.54c6.19,12.68,8.38,69.81,8.9,87.02.03,1.05-.79,1.92-1.84,1.96ZM92.89,184.49h-56.51v-43.43h56.51v43.43ZM116.8,118.7c-3.08-3.6-4.36-5.08-12.29-8.47-19.14-8.17-27.06-28.66-28.91-34.23h-21.93c-1.84,5.57-9.77,26.06-28.91,34.23-7.93,3.39-9.21,4.87-12.29,8.47l-1.19,1.38c-10.81,12.35-8.87,31.05-4.81,60.53,3.01,21.89,8.46,44.07,10.19,50.84h95.94c1.79-7.05,7.19-29.08,10.19-50.84,4.06-29.49,6-48.18-4.81-60.53l-1.19-1.38Z"/>
      <rect class="cls-1" x="54.17" y="68.77" width="20.93" height="3.44"/>
      <path class="cls-1" d="M78.63,9.11v-3.41l-13.74,1.87c-.09.01-.17.02-.26.02s-.17,0-.26-.02l-13.74-1.87v3.41l14,1.9,13.99-1.9Z"/>
      <rect class="cls-1" x="50.64" y="30.35" width="27.99" height="3.85"/>
      <polygon class="cls-1" points="78.63 1.87 78.63 0 50.64 0 50.64 1.87 64.64 3.78 78.63 1.87"/>
      <path class="cls-1" d="M78.63,12.94l-13.74,1.87c-.09.01-.17.02-.26.02s-.17,0-.26-.02l-13.74-1.87v13.62h27.99v-13.62Z"/>
      <path class="cls-1" d="M233.17,147.46l-14.02-59.07c-5.9,4.3-20.24,6.3-33.81,6.3s-27.91-2-33.81-6.3l-14.02,59.07c7.44-.89,28.83-3.23,47.83-3.23s40.39,2.34,47.83,3.23Z"/>
      <path class="cls-1" d="M139.27,151.08c5.04,3.88,18.06,10.93,46.07,10.93s41.02-7.04,46.07-10.93c-8.33-.97-28.28-3.05-46.07-3.05s-37.75,2.08-46.07,3.05Z"/>
      <path class="cls-1" d="M185.42,226.24c-15.13,0-28.12-3.27-34.35-8.48-.15.42-.25.84-.25,1.25,0,5.83,14.21,12.32,34.6,12.32s34.6-6.49,34.6-12.32c0-.5-.13-1.03-.35-1.55-6.4,5.32-19.63,8.78-34.25,8.78Z"/>
      <path class="cls-1" d="M185.34,179.9c-6.71,0-12.14-1.59-12.14-3.56s5.44-3.56,12.14-3.56,12.14,1.59,12.14,3.56-5.44,3.56-12.14,3.56ZM234.47,153.52c-5.21,4.34-18.88,12.28-49.13,12.28s-43.91-7.93-49.12-12.27c-.49,3.96-.43,10.75,4.08,16.93,7.1,9.73,22.26,14.66,45.05,14.66s37.95-4.93,45.05-14.66c4.53-6.2,4.57-13.02,4.08-16.93Z"/>
      <path class="cls-1" d="M218.14,83.91c0,.23-.05.46-.16.69-.11.23-.26.45-.47.68-.21.22-.47.45-.78.67-.31.22-.67.43-1.08.65-.41.21-.87.42-1.38.62-.51.2-1.06.4-1.65.59-.6.19-1.24.37-1.92.55-.68.18-1.4.35-2.16.51-.76.16-1.55.32-2.38.46-.83.15-1.69.28-2.58.41-.89.13-1.81.24-2.76.35-.95.11-1.92.21-2.91.29-.99.09-2,.16-3.03.23-1.03.07-2.07.12-3.12.17-1.05.04-2.11.08-3.18.1-1.07.02-2.14.03-3.21.03s-2.15-.01-3.21-.03c-1.07-.02-2.13-.06-3.18-.1-1.05-.04-2.09-.1-3.12-.17-1.03-.07-2.04-.14-3.03-.23s-1.96-.19-2.91-.29-1.87-.23-2.76-.35-1.75-.26-2.58-.41-1.63-.3-2.38-.46c-.76-.16-1.48-.33-2.16-.51-.68-.18-1.32-.36-1.92-.55-.6-.19-1.15-.39-1.65-.59-.51-.2-.96-.41-1.38-.62-.41-.21-.77-.43-1.08-.65s-.57-.44-.78-.67c-.21-.22-.37-.45-.47-.68-.11-.23-.16-.46-.16-.69s.05-.46.16-.69c.11-.23.26-.45.47-.68.21-.22.47-.45.78-.67s.67-.43,1.08-.65c.41-.21.87-.42,1.38-.62.51-.2,1.06-.4,1.65-.59.6-.19,1.24-.37,1.92-.55.68-.18,1.4-.35,2.16-.51.76-.16,1.55-.32,2.38-.46s1.69-.28,2.58-.41,1.81-.24,2.76-.35c.95-.11,1.92-.21,2.91-.29.99-.09,2-.16,3.03-.23,1.03-.07,2.07-.12,3.12-.17,1.05-.04,2.11-.08,3.18-.1,1.07-.02,2.14-.03,3.21-.03s2.15.01,3.21.03c1.07.02,2.13.06,3.18.1,1.05.04,2.09.1,3.12.17,1.03.07,2.04.14,3.03.23.99.09,1.96.19,2.91.29.95.11,1.87.23,2.76.35.89.13,1.75.26,2.58.41.83.15,1.63.3,2.38.46.76.16,1.48.33,2.16.51.68.18,1.32.36,1.92.55.6.19,1.15.39,1.65.59.51.2.96.41,1.38.62.41.21.77.43,1.08.65.31.22.57.44.78.67.21.22.37.45.47.68s.16.46.16.69Z"/>
      <path class="cls-1" d="M153.31,214.69c5.29,4.62,18.02,7.75,32.11,7.75s26.35-3.21,31.9-7.95c-3.56-3.01-10.58-5.82-20.72-7.11.49,4.07.84,6.93.96,7.59.23.75-.03,1.58-.66,2.06-1.52,1.16-5.68,3.85-11.54,3.87h-.05c-5.54,0-9.58-2.42-11.5-3.86-.54-.41-.82-1.07-.74-1.74l.95-7.88c-10.22,1.33-17.24,4.22-20.7,7.28Z"/>
      <path class="cls-1" d="M193.68,214.66c-.03-.22-.06-.45-.09-.68-.16-1.21-.38-3.01-.67-5.42-.54-4.49-1.31-11.1-2.31-19.74-1.71.06-3.46.1-5.26.1s-3.55-.04-5.26-.1l-3.12,25.82c1.75,1.13,4.72,2.47,8.38,2.49,3.82-.01,6.73-1.43,8.34-2.46Z"/>
    </g>
  </g>
</svg>